<?xml version="1.0" standalone="no"?>
<!DOCTYPE svg PUBLIC "-//W3C//DTD SVG 20010904//EN"
 "http://www.w3.org/TR/2001/REC-SVG-20010904/DTD/svg10.dtd">
<svg version="1.0" xmlns="http://www.w3.org/2000/svg"
 width="1555.000000pt" height="1555.000000pt" viewBox="0 0 1555.000000 1555.000000"
 preserveAspectRatio="xMidYMid meet">
<metadata>
Created by potrace 1.11, written by Peter Selinger 2001-2013
</metadata>
<g transform="translate(0.000000,1555.000000) scale(0.100000,-0.100000)"
fill="#000000" stroke="none">
<path d="M3339 15533 c-190 -23 -371 -78 -564 -173 -514 -252 -997 -786 -1384
-1532 -337 -649 -424 -1319 -245 -1893 35 -112 133 -306 202 -397 154 -205
332 -348 567 -455 136 -62 316 -119 430 -137 17 -3 62 -11 100 -18 80 -14 449
-17 565 -5 72 8 176 25 285 46 28 5 93 22 145 36 52 14 102 28 110 30 26 6
234 75 255 85 11 5 76 32 145 60 299 122 677 331 990 548 107 74 334 242 396
293 23 19 61 50 85 69 139 112 384 322 485 415 6 5 60 55 119 110 60 55 122
113 139 129 56 51 298 280 356 336 48 46 306 292 399 380 57 54 161 149 260
240 58 52 112 102 121 110 8 8 65 58 125 110 61 52 116 101 124 108 23 22 343
276 403 320 31 23 59 38 61 34 6 -10 0 -422 -6 -452 -3 -14 -8 -45 -11 -70
-26 -220 -30 -245 -41 -320 -2 -14 -9 -56 -15 -95 -15 -98 -19 -120 -35 -210
-8 -44 -17 -96 -20 -115 -37 -230 -161 -768 -257 -1110 -61 -220 -68 -254 -64
-320 6 -88 14 -118 52 -191 97 -184 303 -304 509 -294 107 5 178 33 251 102
52 48 87 100 154 233 59 118 73 143 80 150 3 3 21 34 39 70 160 304 510 835
871 1320 55 74 133 180 172 235 40 55 75 102 78 105 3 3 32 41 65 85 113 149
208 260 319 371 99 99 237 214 256 214 10 0 2 -71 -17 -155 -30 -135 -144
-440 -258 -690 -170 -374 -311 -716 -380 -915 -41 -120 -97 -317 -110 -389
-38 -206 -49 -359 -32 -437 25 -112 81 -209 177 -304 180 -180 415 -223 594
-110 27 17 54 37 61 43 7 7 187 184 401 393 214 210 439 430 500 490 62 60
275 269 474 464 320 314 397 386 378 354 -3 -5 -25 -58 -48 -119 -52 -138 -70
-185 -81 -210 -5 -11 -40 -101 -78 -200 -38 -99 -74 -191 -79 -205 -6 -14
-178 -446 -382 -960 -204 -514 -377 -948 -385 -963 -8 -16 -15 -33 -15 -38 0
-6 -8 -29 -19 -52 -10 -23 -69 -172 -130 -332 -61 -159 -122 -314 -134 -343
l-22 -54 -310 -113 c-334 -122 -410 -150 -640 -243 -385 -155 -406 -165 -463
-221 -198 -196 -158 -581 72 -698 93 -47 155 -44 421 22 127 31 241 59 254 61
13 3 76 18 139 35 63 17 116 29 117 27 2 -2 -21 -77 -51 -167 -116 -348 -276
-872 -356 -1166 -61 -224 -168 -651 -168 -671 0 -11 -5 -25 -12 -32 -7 -7 -9
-12 -6 -12 3 0 2 -17 -3 -37 -5 -21 -19 -81 -30 -133 -11 -52 -22 -102 -24
-110 -4 -16 -43 -208 -51 -250 -3 -14 -12 -59 -20 -100 -9 -41 -18 -85 -20
-98 -2 -12 -8 -48 -14 -80 -10 -58 -16 -87 -25 -132 -2 -14 -7 -41 -10 -60 -3
-19 -8 -48 -11 -65 -3 -16 -7 -43 -10 -60 -2 -16 -9 -55 -14 -85 -5 -30 -17
-107 -25 -170 -9 -63 -18 -126 -20 -140 -2 -14 -6 -44 -9 -67 -3 -24 -9 -62
-12 -85 -3 -24 -7 -54 -9 -68 -2 -14 -6 -52 -10 -85 -3 -33 -10 -96 -15 -140
-5 -44 -11 -116 -15 -160 -3 -44 -8 -100 -10 -125 -33 -331 -38 -998 -10
-1335 9 -115 17 -196 20 -222 2 -16 6 -59 10 -98 3 -38 10 -92 15 -120 5 -27
11 -68 14 -90 22 -180 88 -506 142 -696 195 -698 550 -1143 1039 -1302 260
-84 544 -81 797 9 325 116 653 383 879 714 24 36 46 67 50 70 27 25 218 389
277 530 52 123 162 452 177 530 2 13 9 37 14 54 11 35 59 261 67 315 3 20 7
47 9 61 2 14 7 45 10 70 3 25 8 56 10 70 3 14 7 51 10 83 4 32 8 66 10 76 19
101 27 756 12 981 -17 241 -32 392 -63 610 -3 19 -11 73 -19 120 -8 47 -16
101 -19 121 -3 19 -17 93 -30 165 -14 71 -27 141 -30 156 -9 50 -130 552 -169
703 -48 181 -169 339 -317 415 -85 43 -226 75 -325 73 -154 -3 -326 -71 -426
-168 -78 -76 -116 -139 -150 -250 -15 -49 -15 -216 -1 -270 6 -22 14 -58 18
-80 3 -22 8 -43 11 -47 2 -5 6 -16 8 -25 1 -10 21 -101 43 -203 42 -192 93
-439 112 -547 6 -35 13 -74 16 -88 2 -14 6 -37 9 -52 3 -16 12 -75 20 -133 9
-58 18 -116 20 -130 3 -24 11 -89 19 -155 2 -16 7 -64 11 -105 4 -41 9 -88 11
-105 23 -226 22 -689 -1 -910 -6 -55 -30 -213 -49 -315 -44 -245 -143 -565
-232 -755 -139 -298 -357 -480 -470 -393 -40 31 -50 44 -85 112 -70 134 -161
437 -203 671 -3 17 -8 41 -10 55 -7 33 -13 77 -26 185 -6 50 -12 106 -15 125
-2 19 -7 69 -10 110 -4 41 -8 91 -10 110 -25 237 -26 984 0 1250 1 19 6 73 10
120 8 98 10 121 19 210 4 36 9 88 12 115 2 28 7 66 9 85 3 19 7 55 10 80 6 55
24 184 30 225 11 68 15 92 20 140 4 28 8 57 10 65 2 8 7 38 10 65 4 28 8 57
10 65 2 8 7 31 10 50 8 49 23 139 31 180 3 19 8 44 9 55 5 26 43 223 50 255 3
14 8 39 11 55 9 52 84 387 100 450 9 33 18 71 21 85 2 13 22 94 45 180 22 85
41 162 43 170 7 34 112 404 167 585 147 489 471 1454 496 1476 6 6 114 38 182
54 8 2 137 38 285 80 149 42 277 78 285 80 34 9 166 46 175 49 6 2 24 6 40 11
17 4 66 18 110 30 44 13 172 49 285 80 113 32 243 68 290 82 47 14 108 31 135
38 28 7 124 33 215 58 489 135 474 129 560 216 97 99 148 228 148 380 1 234
-148 424 -373 476 -113 27 -217 19 -421 -32 -98 -25 -186 -46 -194 -48 -8 -2
-60 -16 -115 -30 -55 -14 -158 -41 -230 -60 -71 -18 -181 -48 -244 -65 -62
-17 -120 -33 -130 -35 -30 -6 -455 -126 -500 -141 -24 -8 -46 -13 -48 -11 -2
3 15 53 38 113 23 60 52 136 64 169 13 33 73 188 134 345 195 496 281 717 398
1020 123 318 332 869 393 1040 21 58 57 157 80 220 51 142 88 247 197 560 46
135 93 268 103 295 62 166 151 439 160 495 30 177 17 292 -49 425 -47 95 -124
178 -224 243 -63 40 -161 86 -212 99 -249 63 -474 31 -709 -101 -72 -40 -205
-137 -277 -202 -24 -21 -242 -238 -485 -481 -243 -244 -444 -443 -447 -443 -3
0 -1 15 3 33 5 17 11 43 14 57 2 14 9 53 16 88 38 208 44 508 15 663 -28 147
-42 194 -90 304 -35 83 -91 162 -165 236 -149 146 -345 217 -600 217 -545 0
-973 -287 -1530 -1025 -30 -40 -58 -73 -63 -73 -4 0 -6 3 -4 8 14 23 24 443
13 522 -2 14 -7 50 -10 80 -24 195 -116 426 -224 556 -270 327 -695 287 -1292
-124 -151 -103 -291 -213 -490 -386 -73 -63 -274 -251 -423 -396 -76 -74 -192
-187 -257 -250 -66 -63 -264 -259 -442 -435 -364 -360 -642 -627 -764 -732
-12 -10 -47 -40 -79 -68 -32 -27 -66 -57 -74 -65 -9 -8 -63 -53 -121 -100 -58
-47 -107 -87 -110 -90 -18 -21 -301 -225 -425 -307 -479 -319 -1021 -542
-1465 -604 -129 -17 -340 -15 -439 6 -218 45 -360 132 -488 300 -86 112 -158
313 -179 498 -14 122 4 399 32 489 3 9 7 25 9 37 17 90 89 300 151 441 58 133
276 535 304 560 3 3 36 52 75 110 105 158 215 291 355 430 288 286 568 445
925 525 138 31 165 43 201 90 90 119 60 287 -61 336 -41 16 -248 18 -376 2z"/>
<path d="M13324 8049 c-185 -25 -302 -144 -309 -314 -5 -127 91 -275 208 -320
67 -25 188 -17 262 19 209 103 251 357 87 529 -68 71 -150 100 -248 86z"/>
</g>
</svg>
